<svg xmlns="http://www.w3.org/2000/svg" xmlns:xlink="http://www.w3.org/1999/xlink" width="500" zoomAndPan="magnify" viewBox="0 0 375 374.999991" height="500" preserveAspectRatio="xMidYMid meet" version="1.0"><defs><g/></defs><g fill="#000000" fill-opacity="1"><g transform="translate(64.816407, 215.249986)"><g><path d="M 48.296875 -83.171875 L 81.859375 0 L 61.5 0 L 55.34375 -16.640625 L 23.6875 -16.640625 L 17.546875 0 L -2.828125 0 L 30.75 -83.171875 Z M 48.890625 -33.265625 L 39.625 -57.46875 L 39.421875 -57.46875 L 30.140625 -33.265625 Z M 48.890625 -33.265625 "/></g></g></g><g fill="#000000" fill-opacity="1"><g transform="translate(143.847319, 215.249986)"><g><path d="M 6.046875 0 L 6.046875 -51.71875 L 23.890625 -51.71875 L 23.890625 -44.25 L 24.09375 -44.25 C 24.226562 -44.519531 24.445312 -44.859375 24.75 -45.265625 C 25.050781 -45.671875 25.707031 -46.375 26.71875 -47.375 C 27.726562 -48.382812 28.800781 -49.289062 29.9375 -50.09375 C 31.082031 -50.90625 32.5625 -51.628906 34.375 -52.265625 C 36.1875 -52.910156 38.035156 -53.234375 39.921875 -53.234375 C 41.867188 -53.234375 43.78125 -52.960938 45.65625 -52.421875 C 47.539062 -51.878906 48.921875 -51.34375 49.796875 -50.8125 L 51.21875 -50 L 43.75 -34.875 C 41.53125 -36.757812 38.441406 -37.703125 34.484375 -37.703125 C 32.328125 -37.703125 30.472656 -37.226562 28.921875 -36.28125 C 27.378906 -35.34375 26.289062 -34.203125 25.65625 -32.859375 C 25.019531 -31.515625 24.566406 -30.375 24.296875 -29.4375 C 24.023438 -28.5 23.890625 -27.757812 23.890625 -27.21875 L 23.890625 0 Z M 6.046875 0 "/></g></g></g><g fill="#000000" fill-opacity="1"><g transform="translate(194.048084, 215.249986)"><g><path d="M 33.578125 -38.609375 C 30.210938 -38.609375 27.316406 -37.363281 24.890625 -34.875 C 22.472656 -32.394531 21.265625 -29.40625 21.265625 -25.90625 C 21.265625 -22.34375 22.472656 -19.316406 24.890625 -16.828125 C 27.316406 -14.347656 30.210938 -13.109375 33.578125 -13.109375 C 35.179688 -13.109375 36.707031 -13.304688 38.15625 -13.703125 C 39.601562 -14.109375 40.660156 -14.515625 41.328125 -14.921875 L 42.234375 -15.53125 L 48.296875 -3.125 C 47.816406 -2.789062 47.15625 -2.367188 46.3125 -1.859375 C 45.476562 -1.359375 43.566406 -0.671875 40.578125 0.203125 C 37.585938 1.078125 34.378906 1.515625 30.953125 1.515625 C 23.359375 1.515625 16.6875 -1.15625 10.9375 -6.5 C 5.1875 -11.84375 2.3125 -18.242188 2.3125 -25.703125 C 2.3125 -33.234375 5.1875 -39.703125 10.9375 -45.109375 C 16.6875 -50.523438 23.359375 -53.234375 30.953125 -53.234375 C 34.378906 -53.234375 37.535156 -52.828125 40.421875 -52.015625 C 43.316406 -51.210938 45.367188 -50.40625 46.578125 -49.59375 L 48.296875 -48.390625 L 42.234375 -36.1875 C 40.015625 -37.800781 37.128906 -38.609375 33.578125 -38.609375 Z M 33.578125 -38.609375 "/></g></g></g><g fill="#000000" fill-opacity="1"><g transform="translate(243.543205, 215.249986)"><g><path d="M 6.046875 0 L 6.046875 -86.703125 L 23.890625 -86.703125 L 23.890625 -46.265625 L 24.09375 -46.265625 C 28.726562 -50.910156 33.664062 -53.234375 38.90625 -53.234375 C 41.46875 -53.234375 44.007812 -52.894531 46.53125 -52.21875 C 49.050781 -51.550781 51.46875 -50.507812 53.78125 -49.09375 C 56.101562 -47.6875 57.984375 -45.6875 59.421875 -43.09375 C 60.867188 -40.507812 61.59375 -37.503906 61.59375 -34.078125 L 61.59375 0 L 43.75 0 L 43.75 -29.234375 C 43.75 -31.921875 42.890625 -34.269531 41.171875 -36.28125 C 39.460938 -38.300781 37.234375 -39.3125 34.484375 -39.3125 C 31.796875 -39.3125 29.359375 -38.269531 27.171875 -36.1875 C 24.984375 -34.101562 23.890625 -31.785156 23.890625 -29.234375 L 23.890625 0 Z M 6.046875 0 "/></g></g></g></svg>